<svg width="32" height="28" viewBox="0 0 32 28" fill="none" xmlns="http://www.w3.org/2000/svg">
<path d="M24.5481 1.4867C25.0643 0.824396 25.857 0.437149 26.6967 0.437149H31.4791C31.9121 0.437149 32.1555 0.935358 31.8893 1.27688L23.5244 12.01C23.3057 12.2907 22.9697 12.4549 22.6138 12.4549H18.506C17.9922 12.4549 17.5757 12.8714 17.5757 13.3852V14.6148C17.5757 15.1286 17.9922 15.5451 18.506 15.5451H22.6138C22.9697 15.5451 23.3057 15.7093 23.5244 15.99L31.8893 26.7231C32.1555 27.0646 31.9121 27.5628 31.4791 27.5628H26.6967C25.857 27.5628 25.0643 27.1756 24.5481 26.5133L16.9107 16.7136C16.4485 16.1205 15.5517 16.1205 15.0894 16.7136L7.45203 26.5133C6.93587 27.1756 6.1431 27.5628 5.30342 27.5628H0.521014C0.0880193 27.5628 -0.155342 27.0646 0.110825 26.7231L8.47571 15.99C8.69448 15.7093 9.03047 15.5451 9.38634 15.5451H13.4941C14.008 15.5451 14.4245 15.1286 14.4245 14.6148V13.3852C14.4245 12.8714 14.008 12.4549 13.4941 12.4549H9.38634C9.03047 12.4549 8.69448 12.2907 8.47571 12.01L0.110824 1.27688C-0.155343 0.935356 0.0880195 0.437149 0.521014 0.437149H5.30342C6.1431 0.437149 6.93587 0.824396 7.45203 1.4867L15.0894 11.2864C15.5517 11.8795 16.4485 11.8795 16.9107 11.2864L24.5481 1.4867Z" fill="white"/>
</svg>
