<svg width="148" height="26" viewBox="0 0 148 26" fill="none" xmlns="http://www.w3.org/2000/svg">
<g clip-path="url(#clip0_17278_3922)">
<path d="M41.0171 19.5036H27.3265V0.298969H40.7694V3.26105H30.5904V8.19855H39.8077V11.0794H30.5904V16.5394H41.015V19.5015L41.0171 19.5036ZM46.0753 19.5036H42.4263L47.6656 12.2326L42.5075 4.9617H46.1294L49.5036 9.81801L52.8508 4.9617H56.4727L51.3146 12.2326L56.5539 19.5036H52.9049L49.5036 14.4828L46.0753 19.5036ZM58.5522 24.9906V4.96378H61.1584L61.4873 7.35135C61.9806 6.49165 62.6758 5.80474 63.573 5.29475C64.4868 4.78268 65.511 4.52665 66.6454 4.52665C67.9068 4.52665 69.033 4.85554 70.0196 5.51331C71.025 6.15444 71.8036 7.04952 72.351 8.20271C72.9172 9.3559 73.2024 10.6715 73.2024 12.1535C73.2024 13.6356 72.9193 14.997 72.351 16.1856C71.8015 17.3554 71.025 18.2713 70.0196 18.9291C69.0309 19.5868 67.8964 19.9157 66.6184 19.9157C65.5942 19.9157 64.6617 19.7055 63.8207 19.285C62.9798 18.8458 62.3116 18.2421 61.8182 17.474V24.9906H58.5543H58.5522ZM65.9044 17.1701C67.0742 17.1701 68.0255 16.7039 68.7582 15.7713C69.5076 14.8388 69.8823 13.6315 69.8823 12.1494C69.8823 10.6673 69.5076 9.53284 68.7582 8.63776C68.0276 7.72187 67.0659 7.266 65.8773 7.266C64.6887 7.266 63.7104 7.71354 62.9423 8.6107C62.1929 9.50578 61.8182 10.659 61.8182 12.0682C61.8182 13.0549 61.9931 13.9437 62.3386 14.7284C62.6863 15.4965 63.1713 16.1002 63.7937 16.5394C64.414 16.9599 65.1196 17.1701 65.9064 17.1701H65.9044ZM82.2822 19.9137C80.746 19.9137 79.4096 19.5848 78.2772 18.927C77.1615 18.2505 76.3018 17.3179 75.6982 16.1293C75.1133 14.9408 74.8198 13.5961 74.8198 12.0973C74.8198 10.5986 75.1403 9.19978 75.7794 8.06533C76.4371 6.91213 77.326 6.03579 78.4396 5.43213C79.572 4.82848 80.8542 4.52665 82.2801 4.52665C83.7976 4.52665 85.1152 4.85554 86.231 5.51331C87.3633 6.17109 88.2251 7.07658 88.81 8.22977C89.4137 9.36423 89.7155 10.6527 89.7155 12.0973C89.7155 13.7064 89.3949 15.1052 88.7559 16.2938C88.1335 17.4636 87.2551 18.3608 86.1227 18.9832C85.007 19.6056 83.7268 19.9157 82.2822 19.9157V19.9137ZM82.2822 17.1431C83.5624 17.1431 84.5678 16.6768 85.3005 15.7443C86.0499 14.793 86.4245 13.5773 86.4245 12.0953C86.4245 10.6132 86.0499 9.48912 85.3005 8.6107C84.5511 7.73227 83.5457 7.29306 82.2822 7.29306C81.0187 7.29306 80.005 7.73227 79.2369 8.6107C78.4875 9.48912 78.1128 10.6506 78.1128 12.0953C78.1128 13.6502 78.4979 14.8846 79.266 15.7984C80.0528 16.6935 81.0582 17.1431 82.2843 17.1431H82.2822ZM92.1135 19.5036V4.96378H94.7196L94.9944 7.10364C95.4523 6.33554 96.1184 5.71315 96.9969 5.23855C97.8753 4.76187 98.8453 4.52457 99.9048 4.52457C101.46 4.52457 102.702 5.00957 103.635 5.97959C104.568 6.9496 105.034 8.24642 105.034 9.8763V19.5057H101.797V10.0407C101.797 9.21852 101.541 8.56907 101.029 8.09239C100.517 7.59905 99.8132 7.35135 98.9161 7.35135C97.8732 7.35135 97.0239 7.67191 96.3641 8.31095C95.7063 8.93334 95.367 9.72851 95.3483 10.6985V19.5057H92.1114L92.1135 19.5036ZM114.719 19.9137C113.256 19.9137 111.957 19.5931 110.823 18.954C109.688 18.2963 108.801 17.3908 108.162 16.2376C107.542 15.0677 107.23 13.7501 107.23 12.2868C107.23 10.7318 107.542 9.36839 108.162 8.19855C108.804 7.00997 109.672 6.10448 110.769 5.48209C111.866 4.84097 113.092 4.52248 114.445 4.52248C115.798 4.52248 117.013 4.83472 118.039 5.45503C119.082 6.05869 119.896 6.93711 120.481 8.08822C121.066 9.22268 121.368 10.5674 121.387 12.1202V12.8883H110.469C110.579 14.1872 111.008 15.2301 111.757 16.0149C112.525 16.783 113.522 17.1681 114.749 17.1681C115.589 17.1681 116.312 16.9765 116.915 16.5915C117.519 16.1897 117.94 15.6214 118.177 14.8908H121.333C120.966 16.4645 120.198 17.6989 119.028 18.5939C117.858 19.4724 116.422 19.9116 114.721 19.9116L114.719 19.9137ZM118.039 10.6132C117.838 9.55365 117.417 8.72935 116.778 8.14443C116.158 7.5595 115.379 7.266 114.447 7.266C113.514 7.266 112.682 7.56783 112.005 8.17149C111.329 8.75641 110.862 9.5703 110.606 10.6132H118.042H118.039ZM123.774 19.5036V4.96378H126.38L126.655 7.10364C127.113 6.33554 127.779 5.71315 128.658 5.23855C129.536 4.76187 130.506 4.52457 131.566 4.52457C133.121 4.52457 134.363 5.00957 135.296 5.97959C136.228 6.9496 136.695 8.24642 136.695 9.8763V19.5057H133.458V10.0407C133.458 9.21852 133.202 8.56907 132.69 8.09239C132.178 7.59905 131.472 7.35135 130.577 7.35135C129.534 7.35135 128.685 7.67191 128.025 8.31095C127.367 8.93334 127.028 9.72851 127.009 10.6985V19.5057H123.772L123.774 19.5036ZM145.733 19.5036C144.159 19.5036 142.952 19.1289 142.111 18.3795C141.289 17.6114 140.876 16.504 140.876 15.0594V7.70729H138.324V4.96378H140.876V-0.000778198H144.113V4.96378H147.873V7.70729H144.113V14.8409C144.113 15.4632 144.267 15.9378 144.58 16.2667C144.89 16.5956 145.348 16.7601 145.951 16.7601H147.598V19.5036H145.733Z" fill="white"/>
<path d="M17.5206 7.59462V0.683791H17.5185V0.677546C17.5185 0.469389 17.3499 0.300781 17.1418 0.300781H0.305992C0.0270607 0.300781 -0.0895079 0.646323 0.0811812 0.817012L3.2764 4.01431C3.31179 4.05177 3.41378 4.12255 3.55117 4.12255H13.3138C13.5011 4.13504 13.6489 4.28491 13.6614 4.47225V6.25824V7.64041C13.6447 7.82983 13.4886 7.97971 13.295 7.98387H0.322644C0.322644 7.98387 0.316399 7.98387 0.312236 7.98387C0.139466 7.98387 0 8.12334 0 8.29611C0 8.40018 0.0520396 8.49177 0.131139 8.54798L3.27848 11.6953C3.37007 11.7869 3.41378 11.8036 3.55533 11.8036H9.45243C9.64186 11.814 9.79381 11.9618 9.80838 12.1491V15.3235C9.79173 15.5067 9.64602 15.6503 9.46076 15.6628H0.314318C0.141547 15.6628 0.00208123 15.8023 0.00208123 15.975C0.00208123 16.075 0.052039 16.1645 0.124894 16.2207L3.27848 19.3763C3.31595 19.4117 3.42003 19.4825 3.55533 19.4825H9.43994C9.64394 19.4783 9.80838 19.3118 9.80838 19.1057C9.80838 19.0995 9.80838 19.0932 9.80838 19.087V16.0208C9.81671 15.8231 9.97283 15.667 10.1685 15.6607H13.2929C13.499 15.6566 13.6655 15.4879 13.6655 15.2819C13.6655 15.2798 13.6655 15.2756 13.6655 15.2715V8.34606C13.6718 8.14415 13.8383 7.98179 14.0402 7.98179H17.1439C17.1272 7.98179 17.1584 7.98179 17.1439 7.98179C17.352 7.98179 17.5206 7.81318 17.5206 7.60502C17.5206 7.60086 17.5206 7.5967 17.5206 7.59253H17.5248L17.5206 7.59462Z" fill="white"/>
</g>
<defs>
<clipPath id="clip0_17278_3922">
<rect width="148" height="25.1871" fill="white"/>
</clipPath>
</defs>
</svg>
