<svg width="18" height="20" viewBox="0 0 18 20" fill="none" xmlns="http://www.w3.org/2000/svg">
<path d="M17.5206 7.29383V0.38301H17.5185V0.376765C17.5185 0.168608 17.3499 0 17.1418 0H0.305992C0.0270607 0 -0.0895079 0.345542 0.0811812 0.516231L3.2764 3.71352C3.31179 3.75099 3.41378 3.82177 3.55117 3.82177H13.3138C13.5011 3.83426 13.6489 3.98413 13.6614 4.17147V5.95746V7.33963C13.6447 7.52905 13.4886 7.67893 13.295 7.68309H0.322644C0.322644 7.68309 0.316399 7.68309 0.312236 7.68309C0.139466 7.68309 0 7.82255 0 7.99532C0 8.0994 0.0520396 8.19099 0.131139 8.2472L3.27848 11.3945C3.37007 11.4861 3.41378 11.5028 3.55533 11.5028H9.45243C9.64186 11.5132 9.79381 11.661 9.80838 11.8483V15.0227C9.79173 15.2059 9.64602 15.3495 9.46076 15.362H0.314318C0.141547 15.362 0.00208123 15.5015 0.00208123 15.6743C0.00208123 15.7742 0.052039 15.8637 0.124894 15.9199L3.27848 19.0756C3.31595 19.1109 3.42003 19.1817 3.55533 19.1817H9.43994C9.64394 19.1775 9.80838 19.011 9.80838 18.8049C9.80838 18.7987 9.80838 18.7925 9.80838 18.7862V15.72C9.81671 15.5223 9.97283 15.3662 10.1685 15.3599H13.2929C13.499 15.3558 13.6655 15.1872 13.6655 14.9811C13.6655 14.979 13.6655 14.9748 13.6655 14.9707V8.04528C13.6718 7.84337 13.8383 7.68101 14.0402 7.68101H17.1439C17.1272 7.68101 17.1584 7.68101 17.1439 7.68101C17.352 7.68101 17.5206 7.5124 17.5206 7.30424C17.5206 7.30008 17.5206 7.29592 17.5206 7.29175H17.5248L17.5206 7.29383Z" fill="white"/>
</svg>
